{
  "accessors": [
    {
      "bufferView": 2,
      "componentType": 5126,
      "count": 4,
      "max": [
        167.02890014648438,
        167.02890014648438,
        0
      ],
      "min": [
        -167.02890014648438,
        -167.02890014648438,
        0
      ],
      "type": "VEC3"
    },
    {
      "bufferView": 2,
      "byteOffset": 48,
      "componentType": 5126,
      "count": 4,
      "max": [
        0,
        0,
        1
      ],
      "min": [
        0,
        0,
        1
      ],
      "type": "VEC3"
    },
    {
      "bufferView": 3,
      "componentType": 5126,
      "count": 4,
      "max": [
        1,
        2.3841863594498136e-07,
        0,
        1
      ],
      "min": [
        1,
        1.8270841906087298e-07,
        0,
        1
      ],
      "type": "VEC4"
    },
    {
      "bufferView": 1,
      "componentType": 5126,
      "count": 4,
      "max": [
        1,
        1
      ],
      "min": [
        2.9802322387695312e-08,
        2.9802322387695312e-08
      ],
      "type": "VEC2"
    },
    {
      "bufferView": 0,
      "componentType": 5125,
      "count": 6,
      "max": [
        3
      ],
      "min": [
        0
      ],
      "type": "SCALAR"
    },
    {
      "bufferView": 2,
      "byteOffset": 96,
      "componentType": 5126,
      "count": 5888,
      "max": [
        33.71405029296875,
        8.8149147033691406,
        3.6103196144104004
      ],
      "min": [
        -33.288043975830078,
        -9.6654529571533203,
        -98.599624633789062
      ],
      "type": "VEC3"
    },
    {
      "bufferView": 2,
      "byteOffset": 70752,
      "componentType": 5126,
      "count": 5888,
      "max": [
        1,
        1,
        1
      ],
      "min": [
        -1,
        -1,
        -1
      ],
      "type": "VEC3"
    },
    {
      "bufferView": 3,
      "byteOffset": 64,
      "componentType": 5126,
      "count": 5888,
      "max": [
        1,
        1,
        1,
        1
      ],
      "min": [
        -1,
        -1,
        -1,
        -1
      ],
      "type": "VEC4"
    },
    {
      "bufferView": 1,
      "byteOffset": 32,
      "componentType": 5126,
      "count": 5888,
      "max": [
        0.99658757448196411,
        0.89030003547668457
      ],
      "min": [
        0.00050000002374872565,
        0.00050000002374872565
      ],
      "type": "VEC2"
    },
    {
      "bufferView": 1,
      "byteOffset": 47136,
      "componentType": 5126,
      "count": 5888,
      "max": [
        77.513420104980469,
        114.49385833740234
      ],
      "min": [
        -33.288043975830078,
        -0.022378643974661827
      ],
      "type": "VEC2"
    },
    {
      "bufferView": 0,
      "byteOffset": 24,
      "componentType": 5125,
      "count": 17088,
      "max": [
        5887
      ],
      "min": [
        0
      ],
      "type": "SCALAR"
    },
    {
      "bufferView": 2,
      "byteOffset": 141408,
      "componentType": 5126,
      "count": 1480,
      "max": [
        35.000007629394531,
        28.814144134521484,
        12.207813262939453
      ],
      "min": [
        -35.159408569335938,
        8.8090200424194336,
        -107.79219055175781
      ],
      "type": "VEC3"
    },
    {
      "bufferView": 2,
      "byteOffset": 159168,
      "componentType": 5126,
      "count": 1480,
      "max": [
        0.99999892711639404,
        1,
        0.99999868869781494
      ],
      "min": [
        -0.99999922513961792,
        -1,
        -0.99999868869781494
      ],
      "type": "VEC3"
    },
    {
      "bufferView": 3,
      "byteOffset": 94272,
      "componentType": 5126,
      "count": 1480,
      "max": [
        1,
        1,
        0.99999988079071045,
        1
      ],
      "min": [
        -1,
        -1,
        -1,
        1
      ],
      "type": "VEC4"
    },
    {
      "bufferView": 1,
      "byteOffset": 94240,
      "componentType": 5126,
      "count": 1480,
      "max": [
        0.99950003623962402,
        0.98596459627151489
      ],
      "min": [
        0.00050000002374872565,
        0.00050000002374872565
      ],
      "type": "VEC2"
    },
    {
      "bufferView": 1,
      "byteOffset": 106080,
      "componentType": 5126,
      "count": 1480,
      "max": [
        1.0051620006561279,
        0.8706430196762085
      ],
      "min": [
        -0.016558144241571426,
        -0.0020512943156063557
      ],
      "type": "VEC2"
    },
    {
      "bufferView": 0,
      "byteOffset": 68376,
      "componentType": 5125,
      "count": 3756,
      "max": [
        1479
      ],
      "min": [
        0
      ],
      "type": "SCALAR"
    }
  ],
  "asset": {
    "extras": {
      "author": "MADE.COM (https://sketchfab.com/made-it)",
      "license": "CC-BY-NC-4.0 (http://creativecommons.org/licenses/by-nc/4.0/)",
      "source": "https://sketchfab.com/3d-models/flippa-functional-coffee-table-w-storagewalnut-ab81f4e1bd02409ba924d8a56f2f7b1b",
      "title": "Flippa Functional Coffee Table w. Storage,Walnut"
    },
    "generator": "Sketchfab-5.11.0",
    "version": "2.0"
  },
  "bufferViews": [
    {
      "buffer": 0,
      "byteLength": 83400,
      "byteOffset": 0,
      "name": "floatBufferViews",
      "target": 34963
    },
    {
      "buffer": 0,
      "byteLength": 117920,
      "byteOffset": 83400,
      "byteStride": 8,
      "name": "floatBufferViews",
      "target": 34962
    },
    {
      "buffer": 0,
      "byteLength": 176928,
      "byteOffset": 201320,
      "byteStride": 12,
      "name": "floatBufferViews",
      "target": 34962
    },
    {
      "buffer": 0,
      "byteLength": 117952,
      "byteOffset": 378248,
      "byteStride": 16,
      "name": "floatBufferViews",
      "target": 34962
    }
  ],
  "buffers": [
    {
      "byteLength": 496200,
      "uri": "flippa.bin"
    }
  ],
  "images": [
    {
      "uri": "texturesFlippaCompressed/WOOD_baseColor.jpeg"
    },
    {
      "uri": "texturesFlippaCompressed/WOOD_metallicRoughness.png"
    },
    {
      "uri": "texturesFlippaCompressed/STEEL_metallicRoughness.png"
    },
    {
      "uri": "texturesFlippaCompressed/FLOOR_baseColor.png"
    }
  ],
  "materials": [
    {
      "alphaMode": "BLEND",
      "doubleSided": true,
      "emissiveFactor": [
        0,
        0,
        0
      ],
      "name": "FLOOR",
      "pbrMetallicRoughness": {
        "baseColorFactor": [
          0,
          0,
          0,
          1
        ],
        "baseColorTexture": {
          "index": 3,
          "texCoord": 0
        },
        "metallicFactor": 0,
        "roughnessFactor": 1
      }
    },
    {
      "doubleSided": true,
      "emissiveFactor": [
        0,
        0,
        0
      ],
      "name": "STEEL",
      "occlusionTexture": {
        "index": 2,
        "strength": 1,
        "texCoord": 0
      },
      "pbrMetallicRoughness": {
        "baseColorFactor": [
          0.019607800000000002,
          0.019607800000000002,
          0.019607800000000002,
          1
        ],
        "metallicFactor": 0,
        "metallicRoughnessTexture": {
          "index": 2,
          "texCoord": 0
        },
        "roughnessFactor": 0.087080792700000006
      }
    },
    {
      "doubleSided": true,
      "emissiveFactor": [
        0,
        0,
        0
      ],
      "name": "WOOD",
      "occlusionTexture": {
        "index": 1,
        "strength": 0.50171493899999997,
        "texCoord": 0
      },
      "pbrMetallicRoughness": {
        "baseColorFactor": [
          1,
          1,
          1,
          1
        ],
        "baseColorTexture": {
          "index": 0,
          "texCoord": 0
        },
        "metallicFactor": 0,
        "metallicRoughnessTexture": {
          "index": 1,
          "texCoord": 1
        },
        "roughnessFactor": 0.39805640240000001
      }
    }
  ],
  "meshes": [
    {
      "name": "Plane001_FLOOR_0",
      "primitives": [
        {
          "attributes": {
            "NORMAL": 1,
            "POSITION": 0,
            "TANGENT": 2,
            "TEXCOORD_0": 3
          },
          "indices": 4,
          "material": 0,
          "mode": 4
        }
      ]
    },
    {
      "name": "Flippa_Functional_Coffee_Table_with_Storage_Walnut_CLOSED_STEEL_0",
      "primitives": [
        {
          "attributes": {
            "NORMAL": 6,
            "POSITION": 5,
            "TANGENT": 7,
            "TEXCOORD_0": 8,
            "TEXCOORD_1": 9
          },
          "indices": 10,
          "material": 1,
          "mode": 4
        }
      ]
    },
    {
      "name": "Flippa_Functional_Coffee_Table_with_Storage_Walnut_CLOSED_WOOD_0",
      "primitives": [
        {
          "attributes": {
            "NORMAL": 12,
            "POSITION": 11,
            "TANGENT": 13,
            "TEXCOORD_0": 14,
            "TEXCOORD_1": 15
          },
          "indices": 16,
          "material": 2,
          "mode": 4
        }
      ]
    }
  ],
  "nodes": [
    {
      "children": [
        1
      ],
      "name": "RootNode (gltf orientation matrix)",
      "rotation": [
        -0.70710678118654746,
        -0,
        -0,
        0.70710678118654757
      ]
    },
    {
      "children": [
        2
      ],
      "name": "RootNode (model correction matrix)"
    },
    {
      "children": [
        3
      ],
      "matrix": [
        1,
        0,
        0,
        0,
        0,
        0,
        1,
        0,
        0,
        -1,
        0,
        0,
        0,
        0,
        0,
        1
      ],
      "name": "9904873067b14cf28e6e2b3f0280bc13.fbx"
    },
    {
      "children": [
        4,
        6
      ],
      "name": "RootNode"
    },
    {
      "children": [
        5
      ],
      "matrix": [
        1,
        0,
        0,
        0,
        0,
        2.2204460492503131e-16,
        -1,
        0,
        0,
        1,
        2.2204460492503131e-16,
        0,
        0,
        0,
        0,
        1
      ],
      "name": "Plane001"
    },
    {
      "mesh": 0,
      "name": "Plane001_FLOOR_0"
    },
    {
      "children": [
        7
      ],
      "matrix": [
        4.3711387953671021e-08,
        -1.3234889800848443e-23,
        -0.99999999999999911,
        0,
        1.6292068488171336e-07,
        0.99999999999998668,
        7.1214892595679809e-15,
        0,
        0.99999999999998579,
        -1.6292068488171352e-07,
        4.3711387953671021e-08,
        0,
        -7.62939453125e-06,
        0.44673424959182739,
        0.079702943563461304,
        1
      ],
      "name": "Flippa_Functional_Coffee_Table_with_Storage_Walnut_CLOSED"
    },
    {
      "children": [
        8,
        9
      ],
      "matrix": [
        1,
        0,
        -0,
        0,
        0,
        1,
        0,
        0,
        0,
        0,
        1,
        0,
        0.079700469970703125,
        9.3371162414550781,
        47.792186737060547,
        1
      ],
      "name": ""
    },
    {
      "mesh": 1,
      "name": "Flippa_Functional_Coffee_Table_with_Storage_Walnut_CLOSED_STEEL_0"
    },
    {
      "mesh": 2,
      "name": "Flippa_Functional_Coffee_Table_with_Storage_Walnut_CLOSED_WOOD_0"
    }
  ],
  "samplers": [
    {
      "magFilter": 9729,
      "minFilter": 9987,
      "wrapS": 10497,
      "wrapT": 10497
    }
  ],
  "scene": 0,
  "scenes": [
    {
      "name": "OSG_Scene",
      "nodes": [
        0
      ]
    }
  ],
  "textures": [
    {
      "sampler": 0,
      "source": 0
    },
    {
      "sampler": 0,
      "source": 1
    },
    {
      "sampler": 0,
      "source": 2
    },
    {
      "sampler": 0,
      "source": 3
    }
  ]
}

