{
  "accessors": [
    {
      "bufferView": 2,
      "componentType": 5126,
      "count": 4,
      "max": [
        167.02890014648438,
        167.02890014648438,
        0
      ],
      "min": [
        -167.02890014648438,
        -167.02890014648438,
        0
      ],
      "type": "VEC3"
    },
    {
      "bufferView": 2,
      "byteOffset": 48,
      "componentType": 5126,
      "count": 4,
      "max": [
        0,
        0,
        1
      ],
      "min": [
        0,
        0,
        1
      ],
      "type": "VEC3"
    },
    {
      "bufferView": 3,
      "componentType": 5126,
      "count": 4,
      "max": [
        1,
        0,
        0,
        1
      ],
      "min": [
        1,
        0,
        0,
        1
      ],
      "type": "VEC4"
    },
    {
      "bufferView": 1,
      "componentType": 5126,
      "count": 4,
      "max": [
        1,
        1
      ],
      "min": [
        0,
        0
      ],
      "type": "VEC2"
    },
    {
      "bufferView": 0,
      "componentType": 5125,
      "count": 6,
      "max": [
        3
      ],
      "min": [
        0
      ],
      "type": "SCALAR"
    },
    {
      "bufferView": 2,
      "byteOffset": 96,
      "componentType": 5126,
      "count": 4297,
      "max": [
        75.111579895019531,
        22.552715301513672,
        50.094013214111328
      ],
      "min": [
        -75.111579895019531,
        -25.123062133789062,
        0
      ],
      "type": "VEC3"
    },
    {
      "bufferView": 2,
      "byteOffset": 51660,
      "componentType": 5126,
      "count": 4297,
      "max": [
        1,
        1,
        1
      ],
      "min": [
        -1,
        -1,
        -0.99955666065216064
      ],
      "type": "VEC3"
    },
    {
      "bufferView": 3,
      "byteOffset": 64,
      "componentType": 5126,
      "count": 4297,
      "max": [
        1,
        1,
        1,
        1
      ],
      "min": [
        -1,
        -1,
        -1,
        -1
      ],
      "type": "VEC4"
    },
    {
      "bufferView": 1,
      "byteOffset": 32,
      "componentType": 5126,
      "count": 4297,
      "max": [
        0.99822402000427246,
        0.99949997663497925
      ],
      "min": [
        0.00050000002374872565,
        0.00050000002374872565
      ],
      "type": "VEC2"
    },
    {
      "bufferView": 0,
      "byteOffset": 24,
      "componentType": 5125,
      "count": 16893,
      "max": [
        4296
      ],
      "min": [
        0
      ],
      "type": "SCALAR"
    },
    {
      "bufferView": 2,
      "byteOffset": 103224,
      "componentType": 5126,
      "count": 1278,
      "max": [
        47.283042907714844,
        9.5379409790039062,
        12.911739349365234
      ],
      "min": [
        -47.283046722412109,
        -9.2800216674804688,
        12.676464080810547
      ],
      "type": "VEC3"
    },
    {
      "bufferView": 2,
      "byteOffset": 118560,
      "componentType": 5126,
      "count": 1278,
      "max": [
        0.97328644990921021,
        0.97410386800765991,
        0.67888307571411133
      ],
      "min": [
        -0.97329521179199219,
        -0.97409999370574951,
        -1
      ],
      "type": "VEC3"
    },
    {
      "bufferView": 3,
      "byteOffset": 68816,
      "componentType": 5126,
      "count": 1278,
      "max": [
        0.99952852725982666,
        1,
        0.89132636785507202,
        1
      ],
      "min": [
        -0.99952846765518188,
        -0.99997800588607788,
        -0.89132648706436157,
        -1
      ],
      "type": "VEC4"
    },
    {
      "bufferView": 1,
      "byteOffset": 34408,
      "componentType": 5126,
      "count": 1278,
      "max": [
        0.96670800447463989,
        0.36699000000953674
      ],
      "min": [
        0.00050000002374872565,
        0.005098000168800354
      ],
      "type": "VEC2"
    },
    {
      "bufferView": 0,
      "byteOffset": 67596,
      "componentType": 5125,
      "count": 4068,
      "max": [
        1277
      ],
      "min": [
        0
      ],
      "type": "SCALAR"
    },
    {
      "bufferView": 2,
      "byteOffset": 133896,
      "componentType": 5126,
      "count": 152,
      "max": [
        56.257240295410156,
        -21.039405822753906,
        16.828283309936523
      ],
      "min": [
        -56.417560577392578,
        -22.006172180175781,
        16.222923278808594
      ],
      "type": "VEC3"
    },
    {
      "bufferView": 2,
      "byteOffset": 135720,
      "componentType": 5126,
      "count": 152,
      "max": [
        1,
        0.93841373920440674,
        0.97367721796035767
      ],
      "min": [
        -1,
        -0.93839347362518311,
        -0.97259855270385742
      ],
      "type": "VEC3"
    },
    {
      "bufferView": 3,
      "byteOffset": 89264,
      "componentType": 5126,
      "count": 152,
      "max": [
        0.82233494520187378,
        1,
        0.19652964174747467,
        1
      ],
      "min": [
        -0.81965130567550659,
        -1,
        -0.99173527956008911,
        -1
      ],
      "type": "VEC4"
    },
    {
      "bufferView": 1,
      "byteOffset": 44632,
      "componentType": 5126,
      "count": 152,
      "max": [
        0.027302000671625137,
        0.75860500335693359
      ],
      "min": [
        0.00050000002374872565,
        0.005098000168800354
      ],
      "type": "VEC2"
    },
    {
      "bufferView": 0,
      "byteOffset": 83868,
      "componentType": 5125,
      "count": 540,
      "max": [
        151
      ],
      "min": [
        0
      ],
      "type": "SCALAR"
    },
    {
      "bufferView": 2,
      "byteOffset": 137544,
      "componentType": 5126,
      "count": 1318,
      "max": [
        73.025886535644531,
        -20.523773193359375,
        47.890144348144531
      ],
      "min": [
        -73.025886535644531,
        -22.521781921386719,
        16.402988433837891
      ],
      "type": "VEC3"
    },
    {
      "bufferView": 2,
      "byteOffset": 153360,
      "componentType": 5126,
      "count": 1318,
      "max": [
        1,
        1,
        0.99981135129928589
      ],
      "min": [
        -1,
        -1,
        -1
      ],
      "type": "VEC3"
    },
    {
      "bufferView": 3,
      "byteOffset": 91696,
      "componentType": 5126,
      "count": 1318,
      "max": [
        1,
        0.39925786852836609,
        1,
        1
      ],
      "min": [
        -1,
        -0.39925706386566162,
        -1,
        -1
      ],
      "type": "VEC4"
    },
    {
      "bufferView": 1,
      "byteOffset": 45848,
      "componentType": 5126,
      "count": 1318,
      "max": [
        0.92079800367355347,
        0.99591398239135742
      ],
      "min": [
        0.023490000516176224,
        0.005098000168800354
      ],
      "type": "VEC2"
    },
    {
      "bufferView": 0,
      "byteOffset": 86028,
      "componentType": 5125,
      "count": 6180,
      "max": [
        1317
      ],
      "min": [
        0
      ],
      "type": "SCALAR"
    }
  ],
  "asset": {
    "extras": {
      "author": "MADE.COM (https://sketchfab.com/made-it)",
      "license": "CC-BY-NC-4.0 (http://creativecommons.org/licenses/by-nc/4.0/)",
      "source": "https://sketchfab.com/3d-models/fonteyn-media-unit-walnut-and-grey-b46092af10074566ac851020a7967c85",
      "title": "Fonteyn Media Unit, Walnut and Grey"
    },
    "generator": "Sketchfab-5.11.0",
    "version": "2.0"
  },
  "bufferViews": [
    {
      "buffer": 0,
      "byteLength": 110748,
      "byteOffset": 0,
      "name": "floatBufferViews",
      "target": 34963
    },
    {
      "buffer": 0,
      "byteLength": 56392,
      "byteOffset": 110748,
      "byteStride": 8,
      "name": "floatBufferViews",
      "target": 34962
    },
    {
      "buffer": 0,
      "byteLength": 169176,
      "byteOffset": 167140,
      "byteStride": 12,
      "name": "floatBufferViews",
      "target": 34962
    },
    {
      "buffer": 0,
      "byteLength": 112784,
      "byteOffset": 336316,
      "byteStride": 16,
      "name": "floatBufferViews",
      "target": 34962
    }
  ],
  "buffers": [
    {
      "byteLength": 449100,
      "uri": "fonteyn.bin"
    }
  ],
  "images": [
    {
      "uri": "texturesFonteynCompressed/FLOOR_baseColor.png"
    },
    {
      "uri": "texturesFonteynCompressed/material_metallicRoughness.png"
    },
    {
      "uri": "texturesFonteynCompressed/WALNUT_baseColor.jpeg"
    }
  ],
  "materials": [
    {
      "doubleSided": true,
      "emissiveFactor": [
        0,
        0,
        0
      ],
      "name": "material",
      "occlusionTexture": {
        "index": 1,
        "strength": 1,
        "texCoord": 0
      },
      "pbrMetallicRoughness": {
        "baseColorFactor": [
          0.075895580399999996,
          0.075895580399999996,
          0.075895580399999996,
          1
        ],
        "metallicFactor": 0,
        "roughnessFactor": 0.33708079270000002
      }
    },
    {
      "doubleSided": true,
      "emissiveFactor": [
        0,
        0,
        0
      ],
      "name": "STEEL",
      "pbrMetallicRoughness": {
        "baseColorFactor": [
          0.22352900000000001,
          0.22352900000000001,
          0.22352900000000001,
          1
        ],
        "metallicFactor": 0,
        "roughnessFactor": 0.71560000000000001
      }
    },
    {
      "doubleSided": true,
      "emissiveFactor": [
        0,
        0,
        0
      ],
      "name": "ALUMINUM",
      "pbrMetallicRoughness": {
        "baseColorFactor": [
          0.52597470950000003,
          0.52597470950000003,
          0.52597470950000003,
          1
        ],
        "metallicFactor": 1,
        "roughnessFactor": 0.33098323169999999
      }
    },
    {
      "doubleSided": true,
      "emissiveFactor": [
        0,
        0,
        0
      ],
      "name": "WALNUT",
      "pbrMetallicRoughness": {
        "baseColorFactor": [
          1,
          1,
          1,
          1
        ],
        "baseColorTexture": {
          "index": 2,
          "texCoord": 0
        },
        "metallicFactor": 0,
        "roughnessFactor": 0.18464176830000001
      }
    },
    {
      "alphaMode": "BLEND",
      "doubleSided": true,
      "emissiveFactor": [
        0,
        0,
        0
      ],
      "name": "FLOOR",
      "pbrMetallicRoughness": {
        "baseColorFactor": [
          0,
          0,
          0,
          1
        ],
        "baseColorTexture": {
          "index": 0,
          "texCoord": 0
        },
        "metallicFactor": 0,
        "roughnessFactor": 1
      }
    }
  ],
  "meshes": [
    {
      "name": "FLOOR",
      "primitives": [
        {
          "attributes": {
            "NORMAL": 1,
            "POSITION": 0,
            "TANGENT": 2,
            "TEXCOORD_0": 3
          },
          "indices": 4,
          "material": 4,
          "mode": 4
        }
      ]
    },
    {
      "name": "OAK",
      "primitives": [
        {
          "attributes": {
            "NORMAL": 6,
            "POSITION": 5,
            "TANGENT": 7,
            "TEXCOORD_0": 8
          },
          "indices": 9,
          "material": 0,
          "mode": 4
        }
      ]
    },
    {
      "name": "STEEL",
      "primitives": [
        {
          "attributes": {
            "NORMAL": 11,
            "POSITION": 10,
            "TANGENT": 12,
            "TEXCOORD_0": 13
          },
          "indices": 14,
          "material": 1,
          "mode": 4
        }
      ]
    },
    {
      "name": "ALUMINUM",
      "primitives": [
        {
          "attributes": {
            "NORMAL": 16,
            "POSITION": 15,
            "TANGENT": 17,
            "TEXCOORD_0": 18
          },
          "indices": 19,
          "material": 2,
          "mode": 4
        }
      ]
    },
    {
      "name": "WALNUT",
      "primitives": [
        {
          "attributes": {
            "NORMAL": 21,
            "POSITION": 20,
            "TANGENT": 22,
            "TEXCOORD_0": 23
          },
          "indices": 24,
          "material": 3,
          "mode": 4
        }
      ]
    }
  ],
  "nodes": [
    {
      "children": [
        1
      ],
      "name": "RootNode (gltf orientation matrix)",
      "rotation": [
        -0.70710678118654746,
        -0,
        -0,
        0.70710678118654757
      ]
    },
    {
      "children": [
        2
      ],
      "name": "RootNode (model correction matrix)"
    },
    {
      "children": [
        3,
        5
      ],
      "matrix": [
        1,
        0,
        0,
        0,
        0,
        -4.3711390063094768e-08,
        0.999999999999999,
        0,
        0,
        -0.999999999999999,
        -4.3711390063094768e-08,
        0,
        0,
        0,
        0,
        1
      ],
      "name": "Collada visual scene group"
    },
    {
      "children": [
        4
      ],
      "matrix": [
        1,
        0,
        0,
        0,
        0,
        0,
        -1,
        0,
        0,
        1,
        0,
        0,
        0,
        0,
        0,
        1
      ],
      "name": "Plane001"
    },
    {
      "mesh": 0,
      "name": "FLOOR"
    },
    {
      "children": [
        6,
        7,
        8,
        9
      ],
      "matrix": [
        1,
        0,
        0,
        0,
        0,
        0,
        -1,
        0,
        0,
        1,
        0,
        0,
        0,
        0,
        0,
        1
      ],
      "name": "Fonteyn_Media_Unit_Oak_And_Walnut"
    },
    {
      "mesh": 1,
      "name": "OAK"
    },
    {
      "mesh": 2,
      "name": "STEEL"
    },
    {
      "mesh": 3,
      "name": "ALUMINUM"
    },
    {
      "mesh": 4,
      "name": "WALNUT"
    }
  ],
  "samplers": [
    {
      "magFilter": 9729,
      "minFilter": 9987,
      "wrapS": 10497,
      "wrapT": 10497
    }
  ],
  "scene": 0,
  "scenes": [
    {
      "name": "OSG_Scene",
      "nodes": [
        0
      ]
    }
  ],
  "textures": [
    {
      "sampler": 0,
      "source": 0
    },
    {
      "sampler": 0,
      "source": 1
    },
    {
      "sampler": 0,
      "source": 2
    }
  ]
}

