{
  "accessors": [
    {
      "bufferView": 2,
      "componentType": 5126,
      "count": 36136,
      "max": [
        2.4957680702209473,
        48.380729675292969,
        1.347417950630188
      ],
      "min": [
        -96.487228393554688,
        -17.874790191650391,
        -97.153717041015625
      ],
      "type": "VEC3"
    },
    {
      "bufferView": 2,
      "byteOffset": 433632,
      "componentType": 5126,
      "count": 36136,
      "max": [
        0.99985873699188232,
        0.99999964237213135,
        0.99999988079071045
      ],
      "min": [
        -0.99983412027359009,
        -1,
        -0.99999743700027466
      ],
      "type": "VEC3"
    },
    {
      "bufferView": 3,
      "componentType": 5126,
      "count": 36136,
      "max": [
        0.99999994039535522,
        0.99977284669876099,
        0.99999105930328369,
        1
      ],
      "min": [
        -0.99999994039535522,
        -0.99994117021560669,
        -0.99999451637268066,
        -1
      ],
      "type": "VEC4"
    },
    {
      "bufferView": 1,
      "componentType": 5126,
      "count": 36136,
      "max": [
        0.99949997663497925,
        0.99453181028366089
      ],
      "min": [
        0.00050000002374872565,
        0.00050000002374872565
      ],
      "type": "VEC2"
    },
    {
      "bufferView": 1,
      "byteOffset": 289088,
      "componentType": 5126,
      "count": 36136,
      "max": [
        6.9860000610351562,
        6.4882011413574219
      ],
      "min": [
        0.014000000432133675,
        0.014000000432133675
      ],
      "type": "VEC2"
    },
    {
      "bufferView": 0,
      "componentType": 5125,
      "count": 201768,
      "max": [
        36135
      ],
      "min": [
        0
      ],
      "type": "SCALAR"
    },
    {
      "bufferView": 2,
      "byteOffset": 867264,
      "componentType": 5126,
      "count": 308,
      "max": [
        -13.972519874572754,
        -16.89093017578125,
        -5.298130989074707
      ],
      "min": [
        -79.861396789550781,
        -18.423910140991211,
        -79.292800903320312
      ],
      "type": "VEC3"
    },
    {
      "bufferView": 2,
      "byteOffset": 870960,
      "componentType": 5126,
      "count": 308,
      "max": [
        0.93222349882125854,
        1,
        0.91806149482727051
      ],
      "min": [
        -0.93222349882125854,
        -1,
        -0.91806179285049438
      ],
      "type": "VEC3"
    },
    {
      "bufferView": 3,
      "byteOffset": 578176,
      "componentType": 5126,
      "count": 308,
      "max": [
        1,
        0.059366852045059204,
        0.99994206428527832,
        1
      ],
      "min": [
        -0.98681110143661499,
        -0.059365417808294296,
        -0.9998699426651001,
        -1
      ],
      "type": "VEC4"
    },
    {
      "bufferView": 1,
      "byteOffset": 578176,
      "componentType": 5126,
      "count": 308,
      "max": [
        0.057465199381113052,
        0.072788253426551819
      ],
      "min": [
        0.00050000002374872565,
        0.00050001498311758041
      ],
      "type": "VEC2"
    },
    {
      "bufferView": 1,
      "byteOffset": 580640,
      "componentType": 5126,
      "count": 308,
      "max": [
        0.97222220897674561,
        1
      ],
      "min": [
        -0.027777789160609245,
        0
      ],
      "type": "VEC2"
    },
    {
      "bufferView": 0,
      "byteOffset": 807072,
      "componentType": 5125,
      "count": 840,
      "max": [
        307
      ],
      "min": [
        0
      ],
      "type": "SCALAR"
    },
    {
      "bufferView": 2,
      "byteOffset": 874656,
      "componentType": 5126,
      "count": 4,
      "max": [
        167.02890014648438,
        167.02890014648438,
        0
      ],
      "min": [
        -167.02890014648438,
        -167.02890014648438,
        0
      ],
      "type": "VEC3"
    },
    {
      "bufferView": 2,
      "byteOffset": 874704,
      "componentType": 5126,
      "count": 4,
      "max": [
        0,
        0,
        1
      ],
      "min": [
        0,
        0,
        1
      ],
      "type": "VEC3"
    },
    {
      "bufferView": 3,
      "byteOffset": 583104,
      "componentType": 5126,
      "count": 4,
      "max": [
        1,
        2.3841872121010965e-07,
        0,
        1
      ],
      "min": [
        1,
        1.7881399116959074e-07,
        0,
        1
      ],
      "type": "VEC4"
    },
    {
      "bufferView": 1,
      "byteOffset": 583104,
      "componentType": 5126,
      "count": 4,
      "max": [
        1,
        1
      ],
      "min": [
        2.98022992950564e-08,
        2.98022992950564e-08
      ],
      "type": "VEC2"
    },
    {
      "bufferView": 0,
      "byteOffset": 810432,
      "componentType": 5125,
      "count": 6,
      "max": [
        3
      ],
      "min": [
        0
      ],
      "type": "SCALAR"
    }
  ],
  "asset": {
    "extras": {
      "author": "MADE.COM (https://sketchfab.com/made-it)",
      "license": "CC-BY-NC-4.0 (http://creativecommons.org/licenses/by-nc/4.0/)",
      "source": "https://sketchfab.com/3d-models/ivan-armchair-marl-grey-a90953ee97b24f54a3b2818306ae737f",
      "title": "Ivan Armchair, Marl Grey"
    },
    "generator": "Sketchfab-4.47.0",
    "version": "2.0"
  },
  "bufferViews": [
    {
      "buffer": 0,
      "byteLength": 810456,
      "byteOffset": 0,
      "name": "floatBufferViews",
      "target": 34963
    },
    {
      "buffer": 0,
      "byteLength": 583136,
      "byteOffset": 810456,
      "byteStride": 8,
      "name": "floatBufferViews",
      "target": 34962
    },
    {
      "buffer": 0,
      "byteLength": 874752,
      "byteOffset": 1393592,
      "byteStride": 12,
      "name": "floatBufferViews",
      "target": 34962
    },
    {
      "buffer": 0,
      "byteLength": 583168,
      "byteOffset": 2268344,
      "byteStride": 16,
      "name": "floatBufferViews",
      "target": 34962
    }
  ],
  "buffers": [
    {
      "byteLength": 2851512,
      "uri": "ivanChair.bin"
    }
  ],
  "images": [
    {
      "uri": "texturesIvanChairCompressed/FLOOR_baseColor.png"
    },
    {
      "uri": "texturesIvanChairCompressed/FABRIC_baseColor.jpeg"
    }
  ],
  "materials": [
    {
      "alphaMode": "BLEND",
      "doubleSided": true,
      "emissiveFactor": [
        0,
        0,
        0
      ],
      "name": "FLOOR",
      "pbrMetallicRoughness": {
        "baseColorFactor": [
          0.25171493900000003,
          0.25171493900000003,
          0.25171493900000003,
          1
        ],
        "baseColorTexture": {
          "index": 0,
          "texCoord": 0
        },
        "metallicFactor": 0,
        "roughnessFactor": 1
      }
    },
    {
      "doubleSided": true,
      "emissiveFactor": [
        0,
        0,
        0
      ],
      "name": "FABRIC",
      "pbrMetallicRoughness": {
        "baseColorFactor": [
          1,
          1,
          1,
          1
        ],
        "baseColorTexture": {
          "index": 1,
          "texCoord": 0
        },
        "metallicFactor": 0,
        "roughnessFactor": 0.96022397260000003
      }
    },
    {
      "doubleSided": true,
      "emissiveFactor": [
        0,
        0,
        0
      ],
      "name": "EnvironmentAmbientLight",
      "pbrMetallicRoughness": {
        "baseColorFactor": [
          1,
          1,
          1,
          1
        ],
        "metallicFactor": 0,
        "roughnessFactor": 0.95074147649999996
      }
    }
  ],
  "meshes": [
    {
      "name": "FABRIC",
      "primitives": [
        {
          "attributes": {
            "NORMAL": 1,
            "POSITION": 0,
            "TANGENT": 2,
            "TEXCOORD_0": 3,
            "TEXCOORD_1": 4
          },
          "indices": 5,
          "material": 1,
          "mode": 4
        }
      ]
    },
    {
      "name": "BLACK",
      "primitives": [
        {
          "attributes": {
            "NORMAL": 7,
            "POSITION": 6,
            "TANGENT": 8,
            "TEXCOORD_0": 9,
            "TEXCOORD_1": 10
          },
          "indices": 11,
          "material": 2,
          "mode": 4
        }
      ]
    },
    {
      "name": "FLOOR",
      "primitives": [
        {
          "attributes": {
            "NORMAL": 13,
            "POSITION": 12,
            "TANGENT": 14,
            "TEXCOORD_0": 15
          },
          "indices": 16,
          "material": 0,
          "mode": 4
        }
      ]
    }
  ],
  "nodes": [
    {
      "children": [
        1
      ],
      "name": "RootNode (gltf orientation matrix)",
      "rotation": [
        -0.70710678118654746,
        -0,
        -0,
        0.70710678118654757
      ]
    },
    {
      "children": [
        2
      ],
      "name": "RootNode (model correction matrix)"
    },
    {
      "children": [
        3,
        7,
        9
      ],
      "name": "Collada visual scene group"
    },
    {
      "children": [
        4
      ],
      "matrix": [
        1,
        0,
        0,
        0,
        0,
        -1.6292100000000001e-07,
        1,
        0,
        0,
        -1,
        -1.6292100000000001e-07,
        0,
        0,
        0,
        0.066404340000000006,
        1
      ],
      "name": "Ivan_Armchair"
    },
    {
      "children": [
        5,
        6
      ],
      "matrix": [
        1,
        0,
        0,
        0,
        0,
        1,
        0,
        0,
        0,
        0,
        1,
        0,
        46.995730000000002,
        18.423909999999999,
        47.90334,
        1
      ],
      "name": ""
    },
    {
      "mesh": 0,
      "name": "FABRIC"
    },
    {
      "mesh": 1,
      "name": "BLACK"
    },
    {
      "children": [
        8
      ],
      "name": "Plane001"
    },
    {
      "mesh": 2,
      "name": "FLOOR"
    },
    {
      "children": [
        10
      ],
      "name": "EnvironmentAmbientLight"
    },
    {
      "name": "EnvironmentAmbientLight"
    }
  ],
  "samplers": [
    {
      "magFilter": 9729,
      "minFilter": 9987,
      "wrapS": 10497,
      "wrapT": 10497
    }
  ],
  "scene": 0,
  "scenes": [
    {
      "name": "OSG_Scene",
      "nodes": [
        0
      ]
    }
  ],
  "textures": [
    {
      "sampler": 0,
      "source": 0
    },
    {
      "sampler": 0,
      "source": 1
    }
  ]
}

