{
  "accessors": [
    {
      "bufferView": 2,
      "componentType": 5126,
      "count": 4,
      "max": [
        167.02888488769531,
        167.02888488769531,
        0
      ],
      "min": [
        -167.02888488769531,
        -167.02888488769531,
        0
      ],
      "type": "VEC3"
    },
    {
      "bufferView": 2,
      "byteOffset": 48,
      "componentType": 5126,
      "count": 4,
      "max": [
        0,
        0,
        1
      ],
      "min": [
        0,
        0,
        1
      ],
      "type": "VEC3"
    },
    {
      "bufferView": 3,
      "componentType": 5126,
      "count": 4,
      "max": [
        1,
        2.3841860752327193e-07,
        0,
        1
      ],
      "min": [
        1,
        1.8270846169343713e-07,
        0,
        1
      ],
      "type": "VEC4"
    },
    {
      "bufferView": 1,
      "componentType": 5126,
      "count": 4,
      "max": [
        1,
        1
      ],
      "min": [
        2.9802322387695312e-08,
        2.9802322387695312e-08
      ],
      "type": "VEC2"
    },
    {
      "bufferView": 0,
      "componentType": 5125,
      "count": 6,
      "max": [
        3
      ],
      "min": [
        0
      ],
      "type": "SCALAR"
    },
    {
      "bufferView": 2,
      "byteOffset": 96,
      "componentType": 5126,
      "count": 2065,
      "max": [
        49.480964660644531,
        24.276321411132812,
        36.972759246826172
      ],
      "min": [
        -49.480968475341797,
        -24.276350021362305,
        0
      ],
      "type": "VEC3"
    },
    {
      "bufferView": 2,
      "byteOffset": 24876,
      "componentType": 5126,
      "count": 2065,
      "max": [
        0.99851882457733154,
        0.9988669753074646,
        1
      ],
      "min": [
        -0.99851882457733154,
        -0.99886727333068848,
        -1
      ],
      "type": "VEC3"
    },
    {
      "bufferView": 3,
      "byteOffset": 64,
      "componentType": 5126,
      "count": 2065,
      "max": [
        1,
        0.99999988079071045,
        0.99885046482086182,
        1
      ],
      "min": [
        -0.99998968839645386,
        -0.99999958276748657,
        -0.99885964393615723,
        1
      ],
      "type": "VEC4"
    },
    {
      "bufferView": 1,
      "byteOffset": 32,
      "componentType": 5126,
      "count": 2065,
      "max": [
        0.99950003623962402,
        0.99252134561538696
      ],
      "min": [
        0.00050000002374872565,
        0.00050000171177089214
      ],
      "type": "VEC2"
    },
    {
      "bufferView": 0,
      "byteOffset": 24,
      "componentType": 5125,
      "count": 9462,
      "max": [
        2064
      ],
      "min": [
        0
      ],
      "type": "SCALAR"
    },
    {
      "bufferView": 2,
      "byteOffset": 49656,
      "componentType": 5126,
      "count": 448,
      "max": [
        28.378646850585938,
        26.581293106079102,
        35.233261108398438
      ],
      "min": [
        -28.367019653320312,
        -26.581293106079102,
        34.395893096923828
      ],
      "type": "VEC3"
    },
    {
      "bufferView": 2,
      "byteOffset": 55032,
      "componentType": 5126,
      "count": 448,
      "max": [
        1,
        0.9309992790222168,
        0.92683744430541992
      ],
      "min": [
        -1,
        -0.93098700046539307,
        -0.93101763725280762
      ],
      "type": "VEC3"
    },
    {
      "bufferView": 3,
      "byteOffset": 33104,
      "componentType": 5126,
      "count": 448,
      "max": [
        0.95147043466567993,
        0.49030452966690063,
        0.99999433755874634,
        1
      ],
      "min": [
        -0.95146465301513672,
        -0.48922243714332581,
        -0.99999904632568359,
        1
      ],
      "type": "VEC4"
    },
    {
      "bufferView": 1,
      "byteOffset": 16552,
      "componentType": 5126,
      "count": 448,
      "max": [
        0.60120803117752075,
        0.92684066295623779
      ],
      "min": [
        0.47419804334640503,
        0.038395840674638748
      ],
      "type": "VEC2"
    },
    {
      "bufferView": 0,
      "byteOffset": 37872,
      "componentType": 5125,
      "count": 1776,
      "max": [
        447
      ],
      "min": [
        0
      ],
      "type": "SCALAR"
    },
    {
      "bufferView": 2,
      "byteOffset": 60408,
      "componentType": 5126,
      "count": 1016,
      "max": [
        47.057376861572266,
        24.164905548095703,
        35.117576599121094
      ],
      "min": [
        -47.629356384277344,
        -24.256650924682617,
        18.570518493652344
      ],
      "type": "VEC3"
    },
    {
      "bufferView": 2,
      "byteOffset": 72600,
      "componentType": 5126,
      "count": 1016,
      "max": [
        0.99348801374435425,
        1,
        1
      ],
      "min": [
        -0.9934876561164856,
        -1,
        -0.98709797859191895
      ],
      "type": "VEC3"
    },
    {
      "bufferView": 3,
      "byteOffset": 40272,
      "componentType": 5126,
      "count": 1016,
      "max": [
        1,
        0.99348795413970947,
        0.99996465444564819,
        1
      ],
      "min": [
        -1,
        -0.9934876561164856,
        -0.99993270635604858,
        1
      ],
      "type": "VEC4"
    },
    {
      "bufferView": 1,
      "byteOffset": 20136,
      "componentType": 5126,
      "count": 1016,
      "max": [
        0.9970969557762146,
        0.99761652946472168
      ],
      "min": [
        0.00050000002374872565,
        0.00050000002374872565
      ],
      "type": "VEC2"
    },
    {
      "bufferView": 0,
      "byteOffset": 44976,
      "componentType": 5125,
      "count": 4944,
      "max": [
        1015
      ],
      "min": [
        0
      ],
      "type": "SCALAR"
    }
  ],
  "asset": {
    "extras": {
      "author": "MADE.COM (https://sketchfab.com/made-it)",
      "license": "CC-BY-NC-4.0 (http://creativecommons.org/licenses/by-nc/4.0/)",
      "source": "https://sketchfab.com/3d-models/belgrave-storage-coffee-table-dark-stained-oak-41cce3bc254244578a7bfdf706ff8e6d",
      "title": "Belgrave Storage Coffee Table, Dark Stained Oak"
    },
    "generator": "Sketchfab-5.29.0",
    "version": "2.0"
  },
  "bufferViews": [
    {
      "buffer": 0,
      "byteLength": 64752,
      "byteOffset": 0,
      "name": "floatBufferViews",
      "target": 34963
    },
    {
      "buffer": 0,
      "byteLength": 28264,
      "byteOffset": 64752,
      "byteStride": 8,
      "name": "floatBufferViews",
      "target": 34962
    },
    {
      "buffer": 0,
      "byteLength": 84792,
      "byteOffset": 93016,
      "byteStride": 12,
      "name": "floatBufferViews",
      "target": 34962
    },
    {
      "buffer": 0,
      "byteLength": 56528,
      "byteOffset": 177808,
      "byteStride": 16,
      "name": "floatBufferViews",
      "target": 34962
    }
  ],
  "buffers": [
    {
      "byteLength": 234336,
      "uri": "scene.bin"
    }
  ],
  "images": [
    {
      "uri": "textures/BRASS_baseColor.jpeg"
    },
    {
      "uri": "textures/DARK_STAINED_OAK_baseColor.jpeg"
    },
    {
      "uri": "textures/GRAPHITE_baseColor.jpeg"
    },
    {
      "uri": "textures/FLOOR_baseColor.png"
    }
  ],
  "materials": [
    {
      "alphaMode": "BLEND",
      "doubleSided": true,
      "emissiveFactor": [
        0,
        0,
        0
      ],
      "name": "FLOOR",
      "pbrMetallicRoughness": {
        "baseColorFactor": [
          1,
          1,
          1,
          0.70293445119999998
        ],
        "baseColorTexture": {
          "index": 3,
          "texCoord": 0
        },
        "metallicFactor": 0,
        "roughnessFactor": 0.89297135959999996
      }
    },
    {
      "doubleSided": true,
      "emissiveFactor": [
        0,
        0,
        0
      ],
      "name": "GRAPHITE",
      "pbrMetallicRoughness": {
        "baseColorFactor": [
          1,
          1,
          1,
          1
        ],
        "baseColorTexture": {
          "index": 2,
          "texCoord": 0
        },
        "metallicFactor": 0,
        "roughnessFactor": 0.41901676830000001
      }
    },
    {
      "doubleSided": true,
      "emissiveFactor": [
        0,
        0,
        0
      ],
      "name": "BRASS",
      "pbrMetallicRoughness": {
        "baseColorFactor": [
          1,
          1,
          1,
          1
        ],
        "baseColorTexture": {
          "index": 0,
          "texCoord": 0
        },
        "metallicFactor": 1,
        "roughnessFactor": 0.43121189019999995
      }
    },
    {
      "doubleSided": true,
      "emissiveFactor": [
        0,
        0,
        0
      ],
      "name": "DARK_STAINED_OAK",
      "pbrMetallicRoughness": {
        "baseColorFactor": [
          1,
          1,
          1,
          1
        ],
        "baseColorTexture": {
          "index": 1,
          "texCoord": 0
        },
        "metallicFactor": 0,
        "roughnessFactor": 0.45560213409999994
      }
    }
  ],
  "meshes": [
    {
      "name": "Plane001_FLOOR_0",
      "primitives": [
        {
          "attributes": {
            "NORMAL": 1,
            "POSITION": 0,
            "TANGENT": 2,
            "TEXCOORD_0": 3
          },
          "indices": 4,
          "material": 0,
          "mode": 4
        }
      ]
    },
    {
      "name": "GRAPHITE001_GRAPHITE_0",
      "primitives": [
        {
          "attributes": {
            "NORMAL": 6,
            "POSITION": 5,
            "TANGENT": 7,
            "TEXCOORD_0": 8
          },
          "indices": 9,
          "material": 1,
          "mode": 4
        }
      ]
    },
    {
      "name": "BRASS001_BRASS_0",
      "primitives": [
        {
          "attributes": {
            "NORMAL": 11,
            "POSITION": 10,
            "TANGENT": 12,
            "TEXCOORD_0": 13
          },
          "indices": 14,
          "material": 2,
          "mode": 4
        }
      ]
    },
    {
      "name": "DARK_STAINED_OAK001_DARK_STAINED_OAK_0",
      "primitives": [
        {
          "attributes": {
            "NORMAL": 16,
            "POSITION": 15,
            "TANGENT": 17,
            "TEXCOORD_0": 18
          },
          "indices": 19,
          "material": 3,
          "mode": 4
        }
      ]
    }
  ],
  "nodes": [
    {
      "children": [
        1
      ],
      "name": "RootNode (gltf orientation matrix)",
      "rotation": [
        -0.70710678118654746,
        -0,
        -0,
        0.70710678118654757
      ]
    },
    {
      "children": [
        2
      ],
      "name": "RootNode (model correction matrix)"
    },
    {
      "children": [
        3
      ],
      "matrix": [
        1,
        0,
        0,
        0,
        0,
        0,
        1,
        0,
        0,
        -1,
        0,
        0,
        0,
        0,
        0,
        1
      ],
      "name": "Belgrave Storage Coffee Table.FBX"
    },
    {
      "children": [
        4,
        6,
        8,
        10
      ],
      "name": "RootNode"
    },
    {
      "children": [
        5
      ],
      "matrix": [
        1,
        0,
        0,
        0,
        0,
        2.2204460492503131e-16,
        -1,
        0,
        0,
        1,
        2.2204460492503131e-16,
        0,
        0,
        0,
        0,
        1
      ],
      "name": "Plane001"
    },
    {
      "mesh": 0,
      "name": "Plane001_FLOOR_0"
    },
    {
      "children": [
        7
      ],
      "matrix": [
        1,
        0,
        0,
        0,
        0,
        2.2204460492503131e-16,
        -1,
        0,
        0,
        1,
        2.2204460492503131e-16,
        0,
        0,
        0.0099999997764825821,
        0,
        1
      ],
      "name": "GRAPHITE001"
    },
    {
      "mesh": 1,
      "name": "GRAPHITE001_GRAPHITE_0"
    },
    {
      "children": [
        9
      ],
      "matrix": [
        1,
        0,
        0,
        0,
        0,
        2.2204460492503131e-16,
        -1,
        0,
        0,
        1,
        2.2204460492503131e-16,
        0,
        0,
        0.0099999997764825821,
        0,
        1
      ],
      "name": "BRASS001"
    },
    {
      "mesh": 2,
      "name": "BRASS001_BRASS_0"
    },
    {
      "children": [
        11
      ],
      "matrix": [
        1,
        0,
        0,
        0,
        0,
        2.2204460492503131e-16,
        -1,
        0,
        0,
        1,
        2.2204460492503131e-16,
        0,
        0,
        0.0099999997764825821,
        0,
        1
      ],
      "name": "DARK_STAINED_OAK001"
    },
    {
      "mesh": 3,
      "name": "DARK_STAINED_OAK001_DARK_STAINED_OAK_0"
    }
  ],
  "samplers": [
    {
      "magFilter": 9729,
      "minFilter": 9987,
      "wrapS": 10497,
      "wrapT": 10497
    }
  ],
  "scene": 0,
  "scenes": [
    {
      "name": "OSG_Scene",
      "nodes": [
        0
      ]
    }
  ],
  "textures": [
    {
      "sampler": 0,
      "source": 0
    },
    {
      "sampler": 0,
      "source": 1
    },
    {
      "sampler": 0,
      "source": 2
    },
    {
      "sampler": 0,
      "source": 3
    }
  ]
}

