{
  "accessors": [
    {
      "bufferView": 2,
      "componentType": 5126,
      "count": 3240,
      "max": [
        88.933670043945312,
        38.011699676513672,
        18.444549560546875
      ],
      "min": [
        -31.504850387573242,
        -11.95641040802002,
        0.21631430089473724
      ],
      "type": "VEC3"
    },
    {
      "bufferView": 2,
      "byteOffset": 38880,
      "componentType": 5126,
      "count": 3240,
      "max": [
        1,
        1,
        1
      ],
      "min": [
        -1,
        -1,
        -1
      ],
      "type": "VEC3"
    },
    {
      "bufferView": 3,
      "componentType": 5126,
      "count": 3240,
      "max": [
        0.99999994039535522,
        0.71618866920471191,
        0.9999992847442627,
        1
      ],
      "min": [
        -0.99999994039535522,
        -0.71619957685470581,
        -0.99998831748962402,
        -1
      ],
      "type": "VEC4"
    },
    {
      "bufferView": 1,
      "componentType": 5126,
      "count": 3240,
      "max": [
        0.98854982852935791,
        0.99043697118759155
      ],
      "min": [
        0.010948239825665951,
        0.00050000002374872565
      ],
      "type": "VEC2"
    },
    {
      "bufferView": 1,
      "byteOffset": 25920,
      "componentType": 5126,
      "count": 3240,
      "max": [
        0.98130238056182861,
        0.98171710968017578
      ],
      "min": [
        0.031237559393048286,
        0.011731670238077641
      ],
      "type": "VEC2"
    },
    {
      "bufferView": 0,
      "componentType": 5125,
      "count": 15744,
      "max": [
        3239
      ],
      "min": [
        0
      ],
      "type": "SCALAR"
    },
    {
      "bufferView": 2,
      "byteOffset": 77760,
      "componentType": 5126,
      "count": 12504,
      "max": [
        78.578712463378906,
        30.726770401000977,
        0.3033905029296875
      ],
      "min": [
        -19.56464958190918,
        -4.6714811325073242,
        -26.314739227294922
      ],
      "type": "VEC3"
    },
    {
      "bufferView": 2,
      "byteOffset": 227808,
      "componentType": 5126,
      "count": 12504,
      "max": [
        1,
        1,
        1
      ],
      "min": [
        -1,
        -1,
        -1
      ],
      "type": "VEC3"
    },
    {
      "bufferView": 3,
      "byteOffset": 51840,
      "componentType": 5126,
      "count": 12504,
      "max": [
        1,
        0.99999958276748657,
        0.999705970287323,
        1
      ],
      "min": [
        -1,
        -0.9999995231628418,
        -0.999705970287323,
        -1
      ],
      "type": "VEC4"
    },
    {
      "bufferView": 1,
      "byteOffset": 51840,
      "componentType": 5126,
      "count": 12504,
      "max": [
        0.92537480592727661,
        0.98245102167129517
      ],
      "min": [
        -0.72739338874816895,
        0.004460661206394434
      ],
      "type": "VEC2"
    },
    {
      "bufferView": 1,
      "byteOffset": 151872,
      "componentType": 5126,
      "count": 12504,
      "max": [
        3.0727438926696777,
        1.206339955329895
      ],
      "min": [
        -2.1018009185791016,
        -0.097012802958488464
      ],
      "type": "VEC2"
    },
    {
      "bufferView": 0,
      "byteOffset": 62976,
      "componentType": 5125,
      "count": 53232,
      "max": [
        12503
      ],
      "min": [
        0
      ],
      "type": "SCALAR"
    },
    {
      "bufferView": 2,
      "byteOffset": 377856,
      "componentType": 5126,
      "count": 1100,
      "max": [
        78.453681945800781,
        30.601749420166016,
        -26.318479537963867
      ],
      "min": [
        -19.439630508422852,
        -4.5464539527893066,
        -26.539360046386719
      ],
      "type": "VEC3"
    },
    {
      "bufferView": 2,
      "byteOffset": 391056,
      "componentType": 5126,
      "count": 1100,
      "max": [
        0.98717552423477173,
        0.98715770244598389,
        1
      ],
      "min": [
        -0.98715490102767944,
        -0.98715770244598389,
        -1
      ],
      "type": "VEC3"
    },
    {
      "bufferView": 3,
      "byteOffset": 251904,
      "componentType": 5126,
      "count": 1100,
      "max": [
        1,
        0.99958294630050659,
        0.81755268573760986,
        1
      ],
      "min": [
        -1,
        -0.99958372116088867,
        -0.8175550103187561,
        -1
      ],
      "type": "VEC4"
    },
    {
      "bufferView": 1,
      "byteOffset": 251904,
      "componentType": 5126,
      "count": 1100,
      "max": [
        0.87566107511520386,
        0.88765859603881836
      ],
      "min": [
        0.61574238538742065,
        0.28402030467987061
      ],
      "type": "VEC2"
    },
    {
      "bufferView": 1,
      "byteOffset": 260704,
      "componentType": 5126,
      "count": 1100,
      "max": [
        1.0227270126342773,
        1
      ],
      "min": [
        0.022727260366082191,
        0
      ],
      "type": "VEC2"
    },
    {
      "bufferView": 0,
      "byteOffset": 275904,
      "componentType": 5125,
      "count": 4224,
      "max": [
        1099
      ],
      "min": [
        0
      ],
      "type": "SCALAR"
    },
    {
      "bufferView": 2,
      "byteOffset": 404256,
      "componentType": 5126,
      "count": 4,
      "max": [
        167.02890014648438,
        167.02890014648438,
        0
      ],
      "min": [
        -167.02890014648438,
        -167.02890014648438,
        0
      ],
      "type": "VEC3"
    },
    {
      "bufferView": 2,
      "byteOffset": 404304,
      "componentType": 5126,
      "count": 4,
      "max": [
        0,
        0,
        1
      ],
      "min": [
        0,
        0,
        1
      ],
      "type": "VEC3"
    },
    {
      "bufferView": 3,
      "byteOffset": 269504,
      "componentType": 5126,
      "count": 4,
      "max": [
        1,
        2.3841872121010965e-07,
        0,
        1
      ],
      "min": [
        1,
        1.7881399116959074e-07,
        0,
        1
      ],
      "type": "VEC4"
    },
    {
      "bufferView": 1,
      "byteOffset": 269504,
      "componentType": 5126,
      "count": 4,
      "max": [
        1,
        1
      ],
      "min": [
        2.98022992950564e-08,
        2.98022992950564e-08
      ],
      "type": "VEC2"
    },
    {
      "bufferView": 0,
      "byteOffset": 292800,
      "componentType": 5125,
      "count": 6,
      "max": [
        3
      ],
      "min": [
        0
      ],
      "type": "SCALAR"
    }
  ],
  "asset": {
    "extras": {
      "author": "MADE.COM (https://sketchfab.com/made-it)",
      "license": "CC-BY-NC-4.0 (http://creativecommons.org/licenses/by-nc/4.0/)",
      "source": "https://sketchfab.com/3d-models/hooper-storage-coffee-table-walnut-and-brass-c301867e5ac64bae9d17919173a2c0d4",
      "title": "Hooper Storage Coffee Table, Walnut and Brass"
    },
    "generator": "Sketchfab-4.46.0",
    "version": "2.0"
  },
  "bufferViews": [
    {
      "buffer": 0,
      "byteLength": 292824,
      "byteOffset": 0,
      "name": "floatBufferViews",
      "target": 34963
    },
    {
      "buffer": 0,
      "byteLength": 269536,
      "byteOffset": 292824,
      "byteStride": 8,
      "name": "floatBufferViews",
      "target": 34962
    },
    {
      "buffer": 0,
      "byteLength": 404352,
      "byteOffset": 562360,
      "byteStride": 12,
      "name": "floatBufferViews",
      "target": 34962
    },
    {
      "buffer": 0,
      "byteLength": 269568,
      "byteOffset": 966712,
      "byteStride": 16,
      "name": "floatBufferViews",
      "target": 34962
    }
  ],
  "buffers": [
    {
      "byteLength": 1236280,
      "uri": "scene.bin"
    }
  ],
  "images": [
    {
      "uri": "textures/FLOOR_baseColor.png"
    },
    {
      "uri": "textures/RUBBER_baseColor.jpeg"
    },
    {
      "uri": "textures/material_baseColor.jpeg"
    },
    {
      "uri": "textures/EnvironmentAmbientLight_baseColor.jpeg"
    }
  ],
  "materials": [
    {
      "alphaMode": "BLEND",
      "doubleSided": true,
      "emissiveFactor": [
        0,
        0,
        0
      ],
      "name": "FLOOR",
      "pbrMetallicRoughness": {
        "baseColorFactor": [
          0.30659298779999999,
          0.30659298779999999,
          0.30659298779999999,
          1
        ],
        "baseColorTexture": {
          "index": 0,
          "texCoord": 0
        },
        "metallicFactor": 0,
        "roughnessFactor": 1
      }
    },
    {
      "doubleSided": true,
      "emissiveFactor": [
        0,
        0,
        0
      ],
      "name": "material",
      "pbrMetallicRoughness": {
        "baseColorFactor": [
          1,
          1,
          1,
          1
        ],
        "baseColorTexture": {
          "index": 2,
          "texCoord": 0
        },
        "metallicFactor": 0.2029344512,
        "roughnessFactor": 0.36147103660000002
      }
    },
    {
      "doubleSided": true,
      "emissiveFactor": [
        0,
        0,
        0
      ],
      "name": "EnvironmentAmbientLight",
      "pbrMetallicRoughness": {
        "baseColorFactor": [
          1,
          1,
          1,
          1
        ],
        "baseColorTexture": {
          "index": 3,
          "texCoord": 0
        },
        "metallicFactor": 1,
        "roughnessFactor": 0.16025152440000001
      }
    },
    {
      "doubleSided": true,
      "emissiveFactor": [
        0,
        0,
        0
      ],
      "name": "RUBBER",
      "pbrMetallicRoughness": {
        "baseColorFactor": [
          1,
          1,
          1,
          1
        ],
        "baseColorTexture": {
          "index": 1,
          "texCoord": 0
        },
        "metallicFactor": 0,
        "roughnessFactor": 0.68894222370000002
      }
    }
  ],
  "meshes": [
    {
      "name": "ASH",
      "primitives": [
        {
          "attributes": {
            "NORMAL": 1,
            "POSITION": 0,
            "TANGENT": 2,
            "TEXCOORD_0": 3,
            "TEXCOORD_1": 4
          },
          "indices": 5,
          "material": 1,
          "mode": 4
        }
      ]
    },
    {
      "name": "CHROME",
      "primitives": [
        {
          "attributes": {
            "NORMAL": 7,
            "POSITION": 6,
            "TANGENT": 8,
            "TEXCOORD_0": 9,
            "TEXCOORD_1": 10
          },
          "indices": 11,
          "material": 2,
          "mode": 4
        }
      ]
    },
    {
      "name": "RUBBER",
      "primitives": [
        {
          "attributes": {
            "NORMAL": 13,
            "POSITION": 12,
            "TANGENT": 14,
            "TEXCOORD_0": 15,
            "TEXCOORD_1": 16
          },
          "indices": 17,
          "material": 3,
          "mode": 4
        }
      ]
    },
    {
      "name": "FLOOR",
      "primitives": [
        {
          "attributes": {
            "NORMAL": 19,
            "POSITION": 18,
            "TANGENT": 20,
            "TEXCOORD_0": 21
          },
          "indices": 22,
          "material": 0,
          "mode": 4
        }
      ]
    }
  ],
  "nodes": [
    {
      "children": [
        1
      ],
      "name": "RootNode (gltf orientation matrix)",
      "rotation": [
        -0.70710678118654746,
        -0,
        -0,
        0.70710678118654757
      ]
    },
    {
      "children": [
        2
      ],
      "name": "RootNode (model correction matrix)"
    },
    {
      "children": [
        3,
        8,
        10
      ],
      "name": "Collada visual scene group"
    },
    {
      "children": [
        4
      ],
      "matrix": [
        1,
        0,
        0,
        0,
        0,
        1,
        0,
        0,
        0,
        0,
        1,
        0,
        0,
        0.000137329,
        0.081107910000000005,
        1
      ],
      "name": "Hooper_Storage_Coffe_Table_Natural_Ash"
    },
    {
      "children": [
        5,
        6,
        7
      ],
      "matrix": [
        1,
        0,
        0,
        0,
        0,
        1,
        0,
        0,
        0,
        0,
        1,
        0,
        -28.714410000000001,
        -13.02764,
        26.537590000000002,
        1
      ],
      "name": ""
    },
    {
      "mesh": 0,
      "name": "ASH"
    },
    {
      "mesh": 1,
      "name": "CHROME"
    },
    {
      "mesh": 2,
      "name": "RUBBER"
    },
    {
      "children": [
        9
      ],
      "name": "Plane001"
    },
    {
      "mesh": 3,
      "name": "FLOOR"
    },
    {
      "children": [
        11
      ],
      "name": "EnvironmentAmbientLight"
    },
    {
      "name": "EnvironmentAmbientLight"
    }
  ],
  "samplers": [
    {
      "magFilter": 9729,
      "minFilter": 9987,
      "wrapS": 10497,
      "wrapT": 10497
    }
  ],
  "scene": 0,
  "scenes": [
    {
      "name": "OSG_Scene",
      "nodes": [
        0
      ]
    }
  ],
  "textures": [
    {
      "sampler": 0,
      "source": 0
    },
    {
      "sampler": 0,
      "source": 1
    },
    {
      "sampler": 0,
      "source": 2
    },
    {
      "sampler": 0,
      "source": 3
    }
  ]
}

