{
  "accessors": [
    {
      "bufferView": 2,
      "componentType": 5126,
      "count": 4,
      "max": [
        167.02890014648438,
        167.02890014648438,
        0
      ],
      "min": [
        -167.02890014648438,
        -167.02890014648438,
        0
      ],
      "type": "VEC3"
    },
    {
      "bufferView": 2,
      "byteOffset": 48,
      "componentType": 5126,
      "count": 4,
      "max": [
        0,
        0,
        1
      ],
      "min": [
        0,
        0,
        1
      ],
      "type": "VEC3"
    },
    {
      "bufferView": 3,
      "componentType": 5126,
      "count": 4,
      "max": [
        1,
        2.3841872121010965e-07,
        0,
        1
      ],
      "min": [
        1,
        1.7881399116959074e-07,
        0,
        1
      ],
      "type": "VEC4"
    },
    {
      "bufferView": 1,
      "componentType": 5126,
      "count": 4,
      "max": [
        1,
        1
      ],
      "min": [
        2.98022992950564e-08,
        2.98022992950564e-08
      ],
      "type": "VEC2"
    },
    {
      "bufferView": 0,
      "componentType": 5125,
      "count": 6,
      "max": [
        3
      ],
      "min": [
        0
      ],
      "type": "SCALAR"
    },
    {
      "bufferView": 2,
      "byteOffset": 96,
      "componentType": 5126,
      "count": 4390,
      "max": [
        74.764732360839844,
        21.152610778808594,
        48.817928314208984
      ],
      "min": [
        -75.175590515136719,
        -21.067440032958984,
        -0.070024490356445312
      ],
      "type": "VEC3"
    },
    {
      "bufferView": 2,
      "byteOffset": 52776,
      "componentType": 5126,
      "count": 4390,
      "max": [
        1,
        1,
        1
      ],
      "min": [
        -1,
        -1,
        -1
      ],
      "type": "VEC3"
    },
    {
      "bufferView": 3,
      "byteOffset": 64,
      "componentType": 5126,
      "count": 4390,
      "max": [
        1,
        1,
        1,
        1
      ],
      "min": [
        -1,
        -1,
        -1,
        -1
      ],
      "type": "VEC4"
    },
    {
      "bufferView": 1,
      "byteOffset": 32,
      "componentType": 5126,
      "count": 4390,
      "max": [
        0.98726218938827515,
        0.99949997663497925
      ],
      "min": [
        0.00050000002374872565,
        0.00050000002374872565
      ],
      "type": "VEC2"
    },
    {
      "bufferView": 0,
      "byteOffset": 24,
      "componentType": 5125,
      "count": 11856,
      "max": [
        4389
      ],
      "min": [
        0
      ],
      "type": "SCALAR"
    },
    {
      "bufferView": 2,
      "byteOffset": 105456,
      "componentType": 5126,
      "count": 5184,
      "max": [
        -27.895570755004883,
        -5.5650730133056641,
        39.506828308105469
      ],
      "min": [
        -29.451839447021484,
        -19.196250915527344,
        27.063760757446289
      ],
      "type": "VEC3"
    },
    {
      "bufferView": 2,
      "byteOffset": 167664,
      "componentType": 5126,
      "count": 5184,
      "max": [
        1,
        1,
        1
      ],
      "min": [
        -1,
        -1,
        -1
      ],
      "type": "VEC3"
    },
    {
      "bufferView": 3,
      "byteOffset": 70304,
      "componentType": 5126,
      "count": 5184,
      "max": [
        1,
        1,
        1,
        1
      ],
      "min": [
        -1,
        -1,
        -0.99999713897705078,
        -1
      ],
      "type": "VEC4"
    },
    {
      "bufferView": 1,
      "byteOffset": 35152,
      "componentType": 5126,
      "count": 5184,
      "max": [
        0.92170631885528564,
        0.99464941024780273
      ],
      "min": [
        0.61212158203125,
        0.032934479415416718
      ],
      "type": "VEC2"
    },
    {
      "bufferView": 0,
      "byteOffset": 47448,
      "componentType": 5125,
      "count": 20772,
      "max": [
        5183
      ],
      "min": [
        0
      ],
      "type": "SCALAR"
    },
    {
      "bufferView": 2,
      "byteOffset": 229872,
      "componentType": 5126,
      "count": 736,
      "max": [
        -28.471660614013672,
        -16.163299560546875,
        38.496700286865234
      ],
      "min": [
        -29.30143928527832,
        -18.961530685424805,
        35.104591369628906
      ],
      "type": "VEC3"
    },
    {
      "bufferView": 2,
      "byteOffset": 238704,
      "componentType": 5126,
      "count": 736,
      "max": [
        1,
        0.99886780977249146,
        0.99745291471481323
      ],
      "min": [
        -1,
        -0.9988676905632019,
        -0.99745219945907593
      ],
      "type": "VEC3"
    },
    {
      "bufferView": 3,
      "byteOffset": 153248,
      "componentType": 5126,
      "count": 736,
      "max": [
        0.071568630635738373,
        0.99862033128738403,
        0.99943232536315918,
        1
      ],
      "min": [
        -0.071549482643604279,
        -0.99862146377563477,
        -0.99943286180496216,
        -1
      ],
      "type": "VEC4"
    },
    {
      "bufferView": 1,
      "byteOffset": 76624,
      "componentType": 5126,
      "count": 736,
      "max": [
        0.72383838891983032,
        0.2651124894618988
      ],
      "min": [
        0.7186921238899231,
        0.25070878863334656
      ],
      "type": "VEC2"
    },
    {
      "bufferView": 0,
      "byteOffset": 130536,
      "componentType": 5125,
      "count": 2112,
      "max": [
        735
      ],
      "min": [
        0
      ],
      "type": "SCALAR"
    },
    {
      "bufferView": 2,
      "byteOffset": 247536,
      "componentType": 5126,
      "count": 444,
      "max": [
        56.896938323974609,
        -19.093530654907227,
        46.621009826660156
      ],
      "min": [
        -57.136550903320312,
        -23.752450942993164,
        45.806598663330078
      ],
      "type": "VEC3"
    },
    {
      "bufferView": 2,
      "byteOffset": 252864,
      "componentType": 5126,
      "count": 444,
      "max": [
        1,
        1,
        1
      ],
      "min": [
        -1,
        -1,
        -1
      ],
      "type": "VEC3"
    },
    {
      "bufferView": 3,
      "byteOffset": 165024,
      "componentType": 5126,
      "count": 444,
      "max": [
        0.94406986236572266,
        1,
        0.99997711181640625,
        1
      ],
      "min": [
        -0.9430924654006958,
        -0.99999547004699707,
        -1,
        -1
      ],
      "type": "VEC4"
    },
    {
      "bufferView": 1,
      "byteOffset": 82512,
      "componentType": 5126,
      "count": 444,
      "max": [
        0.83837229013442993,
        0.87134528160095215
      ],
      "min": [
        0.71405857801437378,
        0.19047339260578156
      ],
      "type": "VEC2"
    },
    {
      "bufferView": 0,
      "byteOffset": 138984,
      "componentType": 5125,
      "count": 1332,
      "max": [
        443
      ],
      "min": [
        0
      ],
      "type": "SCALAR"
    },
    {
      "bufferView": 2,
      "byteOffset": 258192,
      "componentType": 5126,
      "count": 96,
      "max": [
        24.980550765991211,
        -19.459169387817383,
        41.230121612548828
      ],
      "min": [
        -25.371940612792969,
        -19.784030914306641,
        26.749290466308594
      ],
      "type": "VEC3"
    },
    {
      "bufferView": 2,
      "byteOffset": 259344,
      "componentType": 5126,
      "count": 96,
      "max": [
        1,
        1,
        1
      ],
      "min": [
        -1,
        -1,
        -1
      ],
      "type": "VEC3"
    },
    {
      "bufferView": 3,
      "byteOffset": 172128,
      "componentType": 5126,
      "count": 96,
      "max": [
        1,
        0.7071068286895752,
        0.70708298683166504,
        1
      ],
      "min": [
        -1,
        -0.7071068286895752,
        -1,
        1
      ],
      "type": "VEC4"
    },
    {
      "bufferView": 1,
      "byteOffset": 86064,
      "componentType": 5126,
      "count": 96,
      "max": [
        0.98738551139831543,
        0.99307948350906372
      ],
      "min": [
        0.31094428896903992,
        0.00050000002374872565
      ],
      "type": "VEC2"
    },
    {
      "bufferView": 0,
      "byteOffset": 144312,
      "componentType": 5125,
      "count": 132,
      "max": [
        95
      ],
      "min": [
        0
      ],
      "type": "SCALAR"
    }
  ],
  "asset": {
    "extras": {
      "author": "MADE.COM (https://sketchfab.com/made-it)",
      "license": "CC-BY-NC-4.0 (http://creativecommons.org/licenses/by-nc/4.0/)",
      "source": "https://sketchfab.com/3d-models/aveiro-media-unit-dark-stain-oak-and-grey-41ddaeee966a49899d079256ae0faf41",
      "title": "Aveiro Media Unit, Dark Stain Oak and Grey"
    },
    "generator": "Sketchfab-5.11.0",
    "version": "2.0"
  },
  "bufferViews": [
    {
      "buffer": 0,
      "byteLength": 144840,
      "byteOffset": 0,
      "name": "floatBufferViews",
      "target": 34963
    },
    {
      "buffer": 0,
      "byteLength": 86832,
      "byteOffset": 144840,
      "byteStride": 8,
      "name": "floatBufferViews",
      "target": 34962
    },
    {
      "buffer": 0,
      "byteLength": 260496,
      "byteOffset": 231672,
      "byteStride": 12,
      "name": "floatBufferViews",
      "target": 34962
    },
    {
      "buffer": 0,
      "byteLength": 173664,
      "byteOffset": 492168,
      "byteStride": 16,
      "name": "floatBufferViews",
      "target": 34962
    }
  ],
  "buffers": [
    {
      "byteLength": 665832,
      "uri": "scene.bin"
    }
  ],
  "images": [
    {
      "uri": "textures/FLOOR_baseColor.png"
    },
    {
      "uri": "textures/material_baseColor.jpeg"
    },
    {
      "uri": "textures/HANDLE_baseColor.jpeg"
    },
    {
      "uri": "textures/STEEL_baseColor.jpeg"
    }
  ],
  "materials": [
    {
      "doubleSided": true,
      "emissiveFactor": [
        0,
        0,
        0
      ],
      "name": "material",
      "pbrMetallicRoughness": {
        "baseColorFactor": [
          1,
          1,
          1,
          1
        ],
        "baseColorTexture": {
          "index": 1,
          "texCoord": 0
        },
        "metallicFactor": 0,
        "roughnessFactor": 0.1114710366
      }
    },
    {
      "doubleSided": true,
      "emissiveFactor": [
        0,
        0,
        0
      ],
      "name": "STEEL",
      "pbrMetallicRoughness": {
        "baseColorFactor": [
          1,
          1,
          1,
          1
        ],
        "baseColorTexture": {
          "index": 3,
          "texCoord": 0
        },
        "metallicFactor": 0.45293445119999998,
        "roughnessFactor": 0.14805640240000001
      }
    },
    {
      "doubleSided": true,
      "emissiveFactor": [
        0,
        0,
        0
      ],
      "name": "EnvironmentAmbientLight",
      "pbrMetallicRoughness": {
        "baseColorFactor": [
          0.92941200000000002,
          0.92941200000000002,
          0.92941200000000002,
          1
        ],
        "metallicFactor": 0,
        "roughnessFactor": 0.79005303110000002
      }
    },
    {
      "doubleSided": true,
      "emissiveFactor": [
        0,
        0,
        0
      ],
      "name": "HANDLE",
      "pbrMetallicRoughness": {
        "baseColorFactor": [
          1,
          1,
          1,
          1
        ],
        "baseColorTexture": {
          "index": 2,
          "texCoord": 0
        },
        "metallicFactor": 0.2395198171,
        "roughnessFactor": 0.4468368902
      }
    },
    {
      "alphaMode": "BLEND",
      "doubleSided": true,
      "emissiveFactor": [
        0,
        0,
        0
      ],
      "name": "GLASS",
      "pbrMetallicRoughness": {
        "baseColorFactor": [
          0.17647099999999999,
          0.17647099999999999,
          0.17647099999999999,
          0.18464176830000001
        ],
        "metallicFactor": 0,
        "roughnessFactor": 0.19789491380000002
      }
    },
    {
      "alphaMode": "BLEND",
      "doubleSided": true,
      "emissiveFactor": [
        0,
        0,
        0
      ],
      "name": "FLOOR",
      "pbrMetallicRoughness": {
        "baseColorFactor": [
          0.029691310958399997,
          0.029691310958399997,
          0.029691310958399997,
          1
        ],
        "baseColorTexture": {
          "index": 0,
          "texCoord": 0
        },
        "metallicFactor": 0,
        "roughnessFactor": 1
      }
    }
  ],
  "meshes": [
    {
      "name": "FLOOR",
      "primitives": [
        {
          "attributes": {
            "NORMAL": 1,
            "POSITION": 0,
            "TANGENT": 2,
            "TEXCOORD_0": 3
          },
          "indices": 4,
          "material": 5,
          "mode": 4
        }
      ]
    },
    {
      "name": "OAK",
      "primitives": [
        {
          "attributes": {
            "NORMAL": 6,
            "POSITION": 5,
            "TANGENT": 7,
            "TEXCOORD_0": 8
          },
          "indices": 9,
          "material": 0,
          "mode": 4
        }
      ]
    },
    {
      "name": "STEEL",
      "primitives": [
        {
          "attributes": {
            "NORMAL": 11,
            "POSITION": 10,
            "TANGENT": 12,
            "TEXCOORD_0": 13
          },
          "indices": 14,
          "material": 1,
          "mode": 4
        }
      ]
    },
    {
      "name": "PLASTIC",
      "primitives": [
        {
          "attributes": {
            "NORMAL": 16,
            "POSITION": 15,
            "TANGENT": 17,
            "TEXCOORD_0": 18
          },
          "indices": 19,
          "material": 2,
          "mode": 4
        }
      ]
    },
    {
      "name": "HANDLE",
      "primitives": [
        {
          "attributes": {
            "NORMAL": 21,
            "POSITION": 20,
            "TANGENT": 22,
            "TEXCOORD_0": 23
          },
          "indices": 24,
          "material": 3,
          "mode": 4
        }
      ]
    },
    {
      "name": "GLASS",
      "primitives": [
        {
          "attributes": {
            "NORMAL": 26,
            "POSITION": 25,
            "TANGENT": 27,
            "TEXCOORD_0": 28
          },
          "indices": 29,
          "material": 4,
          "mode": 4
        }
      ]
    }
  ],
  "nodes": [
    {
      "children": [
        1
      ],
      "name": "RootNode (gltf orientation matrix)",
      "rotation": [
        -0.70710678118654746,
        -0,
        -0,
        0.70710678118654757
      ]
    },
    {
      "children": [
        2
      ],
      "name": "RootNode (model correction matrix)"
    },
    {
      "children": [
        3,
        5,
        12
      ],
      "name": "Collada visual scene group"
    },
    {
      "children": [
        4
      ],
      "name": "Plane001"
    },
    {
      "mesh": 0,
      "name": "FLOOR"
    },
    {
      "children": [
        6
      ],
      "name": "Aveiro_Media_Unit_Oak"
    },
    {
      "children": [
        7,
        8,
        9,
        10,
        11
      ],
      "matrix": [
        1,
        0,
        0,
        0,
        0,
        1,
        0,
        0,
        0,
        0,
        1,
        0,
        0,
        0,
        0.070024489999999995,
        1
      ],
      "name": ""
    },
    {
      "mesh": 1,
      "name": "OAK"
    },
    {
      "mesh": 2,
      "name": "STEEL"
    },
    {
      "mesh": 3,
      "name": "PLASTIC"
    },
    {
      "mesh": 4,
      "name": "HANDLE"
    },
    {
      "mesh": 5,
      "name": "GLASS"
    },
    {
      "children": [
        13
      ],
      "name": "EnvironmentAmbientLight"
    },
    {
      "name": "EnvironmentAmbientLight"
    }
  ],
  "samplers": [
    {
      "magFilter": 9729,
      "minFilter": 9987,
      "wrapS": 10497,
      "wrapT": 10497
    }
  ],
  "scene": 0,
  "scenes": [
    {
      "name": "OSG_Scene",
      "nodes": [
        0
      ]
    }
  ],
  "textures": [
    {
      "sampler": 0,
      "source": 0
    },
    {
      "sampler": 0,
      "source": 1
    },
    {
      "sampler": 0,
      "source": 2
    },
    {
      "sampler": 0,
      "source": 3
    }
  ]
}

