{
  "accessors": [
    {
      "bufferView": 2,
      "componentType": 5126,
      "count": 4,
      "max": [
        167.02890014648438,
        167.02890014648438,
        0
      ],
      "min": [
        -167.02890014648438,
        -167.02890014648438,
        0
      ],
      "type": "VEC3"
    },
    {
      "bufferView": 2,
      "byteOffset": 48,
      "componentType": 5126,
      "count": 4,
      "max": [
        0,
        0,
        1
      ],
      "min": [
        0,
        0,
        1
      ],
      "type": "VEC3"
    },
    {
      "bufferView": 3,
      "componentType": 5126,
      "count": 4,
      "max": [
        1,
        2.3841872121010965e-07,
        0,
        1
      ],
      "min": [
        1,
        1.7881399116959074e-07,
        0,
        1
      ],
      "type": "VEC4"
    },
    {
      "bufferView": 1,
      "componentType": 5126,
      "count": 4,
      "max": [
        1,
        1
      ],
      "min": [
        2.98022992950564e-08,
        2.98022992950564e-08
      ],
      "type": "VEC2"
    },
    {
      "bufferView": 1,
      "byteOffset": 32,
      "componentType": 5126,
      "count": 4,
      "max": [
        1,
        1
      ],
      "min": [
        2.98022992950564e-08,
        2.98022992950564e-08
      ],
      "type": "VEC2"
    },
    {
      "bufferView": 1,
      "byteOffset": 64,
      "componentType": 5126,
      "count": 4,
      "max": [
        1,
        1
      ],
      "min": [
        2.98022992950564e-08,
        2.98022992950564e-08
      ],
      "type": "VEC2"
    },
    {
      "bufferView": 1,
      "byteOffset": 96,
      "componentType": 5126,
      "count": 4,
      "max": [
        1,
        1
      ],
      "min": [
        2.98022992950564e-08,
        2.98022992950564e-08
      ],
      "type": "VEC2"
    },
    {
      "bufferView": 1,
      "byteOffset": 128,
      "componentType": 5126,
      "count": 4,
      "max": [
        1,
        1
      ],
      "min": [
        2.98022992950564e-08,
        2.98022992950564e-08
      ],
      "type": "VEC2"
    },
    {
      "bufferView": 1,
      "byteOffset": 160,
      "componentType": 5126,
      "count": 4,
      "max": [
        1,
        1
      ],
      "min": [
        2.98022992950564e-08,
        2.98022992950564e-08
      ],
      "type": "VEC2"
    },
    {
      "bufferView": 1,
      "byteOffset": 192,
      "componentType": 5126,
      "count": 4,
      "max": [
        1,
        1
      ],
      "min": [
        2.98022992950564e-08,
        2.98022992950564e-08
      ],
      "type": "VEC2"
    },
    {
      "bufferView": 1,
      "byteOffset": 224,
      "componentType": 5126,
      "count": 4,
      "max": [
        1,
        1
      ],
      "min": [
        2.98022992950564e-08,
        2.98022992950564e-08
      ],
      "type": "VEC2"
    },
    {
      "bufferView": 1,
      "byteOffset": 256,
      "componentType": 5126,
      "count": 4,
      "max": [
        1,
        1
      ],
      "min": [
        2.98022992950564e-08,
        2.98022992950564e-08
      ],
      "type": "VEC2"
    },
    {
      "bufferView": 1,
      "byteOffset": 288,
      "componentType": 5126,
      "count": 4,
      "max": [
        1,
        1
      ],
      "min": [
        2.98022992950564e-08,
        2.98022992950564e-08
      ],
      "type": "VEC2"
    },
    {
      "bufferView": 0,
      "componentType": 5125,
      "count": 6,
      "max": [
        3
      ],
      "min": [
        0
      ],
      "type": "SCALAR"
    },
    {
      "bufferView": 2,
      "byteOffset": 96,
      "componentType": 5126,
      "count": 54624,
      "max": [
        59.915107727050781,
        42.670341491699219,
        78.564987182617188
      ],
      "min": [
        -59.91510009765625,
        -42.670326232910156,
        13.635326385498047
      ],
      "type": "VEC3"
    },
    {
      "bufferView": 2,
      "byteOffset": 655584,
      "componentType": 5126,
      "count": 54624,
      "max": [
        1,
        0.9999927282333374,
        0.99999988079071045
      ],
      "min": [
        -1,
        -0.9999995231628418,
        -0.99999666213989258
      ],
      "type": "VEC3"
    },
    {
      "bufferView": 3,
      "byteOffset": 64,
      "componentType": 5126,
      "count": 54624,
      "max": [
        1,
        0.99999910593032837,
        0.99998670816421509,
        1
      ],
      "min": [
        -1,
        -0.99999368190765381,
        -0.99998527765274048,
        -1
      ],
      "type": "VEC4"
    },
    {
      "bufferView": 1,
      "byteOffset": 320,
      "componentType": 5126,
      "count": 54624,
      "max": [
        0.94876623153686523,
        0.99950003623962402
      ],
      "min": [
        0.00050000002374872565,
        0.00050000002374872565
      ],
      "type": "VEC2"
    },
    {
      "bufferView": 1,
      "byteOffset": 437312,
      "componentType": 5126,
      "count": 54624,
      "max": [
        6.969977855682373,
        6.9860000610351562
      ],
      "min": [
        0.014000000432133675,
        0.014000000432133675
      ],
      "type": "VEC2"
    },
    {
      "bufferView": 0,
      "byteOffset": 24,
      "componentType": 5125,
      "count": 314964,
      "max": [
        54623
      ],
      "min": [
        0
      ],
      "type": "SCALAR"
    },
    {
      "bufferView": 2,
      "byteOffset": 1311072,
      "componentType": 5126,
      "count": 1013,
      "max": [
        56.31036376953125,
        42.015243530273438,
        70.710525512695312
      ],
      "min": [
        -56.440399169921875,
        -29.74212646484375,
        13.300765037536621
      ],
      "type": "VEC3"
    },
    {
      "bufferView": 2,
      "byteOffset": 1323228,
      "componentType": 5126,
      "count": 1013,
      "max": [
        1,
        0.99961447715759277,
        0.97273892164230347
      ],
      "min": [
        -1,
        -0.99999219179153442,
        -0.99999934434890747
      ],
      "type": "VEC3"
    },
    {
      "bufferView": 3,
      "byteOffset": 874048,
      "componentType": 5126,
      "count": 1013,
      "max": [
        6.8013641794095747e-06,
        0.9986613392829895,
        0.99999338388442993,
        1
      ],
      "min": [
        -1,
        -0.99866056442260742,
        -0.99998527765274048,
        1
      ],
      "type": "VEC4"
    },
    {
      "bufferView": 1,
      "byteOffset": 874304,
      "componentType": 5126,
      "count": 1013,
      "max": [
        0.31562629342079163,
        0.87112504243850708
      ],
      "min": [
        0.00050000002374872565,
        0.55954641103744507
      ],
      "type": "VEC2"
    },
    {
      "bufferView": 1,
      "byteOffset": 882408,
      "componentType": 5126,
      "count": 1013,
      "max": [
        5.0762119293212891,
        2.117811918258667
      ],
      "min": [
        4.0395183563232422,
        0.014536360278725624
      ],
      "type": "VEC2"
    },
    {
      "bufferView": 0,
      "byteOffset": 1259880,
      "componentType": 5125,
      "count": 5340,
      "max": [
        1012
      ],
      "min": [
        0
      ],
      "type": "SCALAR"
    },
    {
      "bufferView": 2,
      "byteOffset": 1335384,
      "componentType": 5126,
      "count": 980,
      "max": [
        55.323749542236328,
        21.114709854125977,
        14.893400192260742
      ],
      "min": [
        -55.32373046875,
        -35.650550842285156,
        -0.093036651611328125
      ],
      "type": "VEC3"
    },
    {
      "bufferView": 2,
      "byteOffset": 1347144,
      "componentType": 5126,
      "count": 980,
      "max": [
        0.9893607497215271,
        0.97245532274246216,
        1
      ],
      "min": [
        -0.98936045169830322,
        -0.97245121002197266,
        -1
      ],
      "type": "VEC3"
    },
    {
      "bufferView": 3,
      "byteOffset": 890256,
      "componentType": 5126,
      "count": 980,
      "max": [
        1,
        0.9993969202041626,
        0.99785834550857544,
        1
      ],
      "min": [
        -0.98991167545318604,
        -0.99939686059951782,
        -0.99852561950683594,
        -1
      ],
      "type": "VEC4"
    },
    {
      "bufferView": 1,
      "byteOffset": 890512,
      "componentType": 5126,
      "count": 980,
      "max": [
        0.9974779486656189,
        0.98633337020874023
      ],
      "min": [
        0.86704897880554199,
        0.041782945394515991
      ],
      "type": "VEC2"
    },
    {
      "bufferView": 1,
      "byteOffset": 898352,
      "componentType": 5126,
      "count": 980,
      "max": [
        0.96096670627593994,
        6.8975329399108887
      ],
      "min": [
        -2.7453670501708984,
        -1.1471439599990845
      ],
      "type": "VEC2"
    },
    {
      "bufferView": 0,
      "byteOffset": 1281240,
      "componentType": 5125,
      "count": 4080,
      "max": [
        979
      ],
      "min": [
        0
      ],
      "type": "SCALAR"
    }
  ],
  "asset": {
    "extras": {
      "author": "MADE.COM (https://sketchfab.com/made-it)",
      "license": "CC-BY-NC-4.0 (http://creativecommons.org/licenses/by-nc/4.0/)",
      "source": "https://sketchfab.com/3d-models/haru-sofabed-quartz-blue-a2f70af7d7db49169fcb87b746b07131",
      "title": "Haru Sofabed, Quartz Blue"
    },
    "generator": "Sketchfab-5.54.1",
    "version": "2.0"
  },
  "bufferViews": [
    {
      "buffer": 0,
      "byteLength": 1297560,
      "byteOffset": 0,
      "name": "floatBufferViews",
      "target": 34963
    },
    {
      "buffer": 0,
      "byteLength": 906192,
      "byteOffset": 1297560,
      "byteStride": 8,
      "name": "floatBufferViews",
      "target": 34962
    },
    {
      "buffer": 0,
      "byteLength": 1358904,
      "byteOffset": 2203752,
      "byteStride": 12,
      "name": "floatBufferViews",
      "target": 34962
    },
    {
      "buffer": 0,
      "byteLength": 905936,
      "byteOffset": 3562656,
      "byteStride": 16,
      "name": "floatBufferViews",
      "target": 34962
    }
  ],
  "buffers": [
    {
      "byteLength": 4468592,
      "uri": "scene.bin"
    }
  ],
  "images": [
    {
      "uri": "textures/FLOOR_baseColor.png"
    },
    {
      "uri": "textures/BLACK_FABRIC_baseColor.jpeg"
    }
  ],
  "materials": [
    {
      "alphaMode": "BLEND",
      "doubleSided": true,
      "emissiveFactor": [
        0,
        0,
        0
      ],
      "name": "FLOOR",
      "pbrMetallicRoughness": {
        "baseColorFactor": [
          0.37375265639999999,
          0.37375265639999999,
          0.37375265639999999,
          1
        ],
        "baseColorTexture": {
          "index": 0,
          "texCoord": 0
        },
        "metallicFactor": 0,
        "roughnessFactor": 1
      }
    },
    {
      "doubleSided": true,
      "emissiveFactor": [
        0,
        0,
        0
      ],
      "name": "BLACK_FABRIC",
      "pbrMetallicRoughness": {
        "baseColorFactor": [
          1,
          1,
          1,
          1
        ],
        "baseColorTexture": {
          "index": 1,
          "texCoord": 0
        },
        "metallicFactor": 0,
        "roughnessFactor": 0.75293496569999996
      }
    },
    {
      "doubleSided": true,
      "name": "CHROME",
      "pbrMetallicRoughness": {
        "baseColorFactor": [
          0.58823499999999995,
          0.58823499999999995,
          0.58823499999999995,
          1
        ],
        "metallicFactor": 1,
        "roughnessFactor": 0
      }
    }
  ],
  "meshes": [
    {
      "name": "Plane001_FLOOR_0",
      "primitives": [
        {
          "attributes": {
            "NORMAL": 1,
            "POSITION": 0,
            "TANGENT": 2,
            "TEXCOORD_0": 3,
            "TEXCOORD_1": 4,
            "TEXCOORD_2": 5,
            "TEXCOORD_3": 6,
            "TEXCOORD_4": 7,
            "TEXCOORD_5": 8,
            "TEXCOORD_6": 9,
            "TEXCOORD_7": 10,
            "TEXCOORD_8": 11,
            "TEXCOORD_9": 12
          },
          "indices": 13,
          "material": 0,
          "mode": 4
        }
      ]
    },
    {
      "name": "MARSHMALLOW_GREY001_BLACK_FABRIC_0",
      "primitives": [
        {
          "attributes": {
            "NORMAL": 15,
            "POSITION": 14,
            "TANGENT": 16,
            "TEXCOORD_0": 17,
            "TEXCOORD_1": 18
          },
          "indices": 19,
          "material": 1,
          "mode": 4
        }
      ]
    },
    {
      "name": "BLACK_FABRIC002_BLACK_FABRIC_0",
      "primitives": [
        {
          "attributes": {
            "NORMAL": 21,
            "POSITION": 20,
            "TANGENT": 22,
            "TEXCOORD_0": 23,
            "TEXCOORD_1": 24
          },
          "indices": 25,
          "material": 1,
          "mode": 4
        }
      ]
    },
    {
      "name": "CHROME002_CHROME_0",
      "primitives": [
        {
          "attributes": {
            "NORMAL": 27,
            "POSITION": 26,
            "TANGENT": 28,
            "TEXCOORD_0": 29,
            "TEXCOORD_1": 30
          },
          "indices": 31,
          "material": 2,
          "mode": 4
        }
      ]
    }
  ],
  "nodes": [
    {
      "children": [
        1
      ],
      "name": "RootNode (gltf orientation matrix)",
      "rotation": [
        -0.70710678118654746,
        -0,
        -0,
        0.70710678118654757
      ]
    },
    {
      "children": [
        2
      ],
      "name": "RootNode (model correction matrix)"
    },
    {
      "children": [
        3
      ],
      "matrix": [
        1,
        0,
        0,
        0,
        0,
        0,
        1,
        0,
        0,
        -1,
        0,
        0,
        0,
        0,
        0,
        1
      ],
      "name": "dbe74e67c696493799f89777ca796984.fbx"
    },
    {
      "children": [
        4,
        6,
        9,
        12
      ],
      "name": "RootNode"
    },
    {
      "children": [
        5
      ],
      "matrix": [
        1,
        0,
        0,
        0,
        0,
        2.2204460492503131e-16,
        -1,
        0,
        0,
        1,
        2.2204460492503131e-16,
        0,
        0,
        0,
        0,
        1
      ],
      "name": "Plane001"
    },
    {
      "mesh": 0,
      "name": "Plane001_FLOOR_0"
    },
    {
      "children": [
        7
      ],
      "matrix": [
        1,
        0,
        0,
        0,
        0,
        2.2204460492503131e-16,
        -1,
        0,
        0,
        1,
        2.2204460492503131e-16,
        0,
        0,
        0,
        0,
        1
      ],
      "name": "MARSHMALLOW_GREY001"
    },
    {
      "children": [
        8
      ],
      "matrix": [
        1,
        0,
        -0,
        0,
        0,
        1,
        0,
        0,
        0,
        0,
        1,
        0,
        0,
        3.4001878645995021e-08,
        -0.77787250280380249,
        1
      ],
      "name": ""
    },
    {
      "mesh": 1,
      "name": "MARSHMALLOW_GREY001_BLACK_FABRIC_0"
    },
    {
      "children": [
        10
      ],
      "matrix": [
        1,
        0,
        0,
        0,
        0,
        2.2204460492503131e-16,
        -1,
        0,
        0,
        1,
        2.2204460492503131e-16,
        0,
        0,
        0,
        0,
        1
      ],
      "name": "BLACK_FABRIC002"
    },
    {
      "children": [
        11
      ],
      "matrix": [
        1,
        0,
        -0,
        0,
        0,
        1,
        0,
        0,
        0,
        0,
        1,
        0,
        0,
        0,
        -0.77787399291992188,
        1
      ],
      "name": ""
    },
    {
      "mesh": 2,
      "name": "BLACK_FABRIC002_BLACK_FABRIC_0"
    },
    {
      "children": [
        13
      ],
      "matrix": [
        1,
        0,
        0,
        0,
        0,
        2.2204460492503131e-16,
        -1,
        0,
        0,
        1,
        2.2204460492503131e-16,
        0,
        0,
        0,
        0,
        1
      ],
      "name": "CHROME002"
    },
    {
      "children": [
        14
      ],
      "matrix": [
        1,
        0,
        -0,
        0,
        0,
        1,
        0,
        0,
        0,
        0,
        1,
        0,
        0,
        -1.5944799258704734e-08,
        0.36477428674697876,
        1
      ],
      "name": ""
    },
    {
      "mesh": 3,
      "name": "CHROME002_CHROME_0"
    }
  ],
  "samplers": [
    {
      "magFilter": 9729,
      "minFilter": 9987,
      "wrapS": 10497,
      "wrapT": 10497
    }
  ],
  "scene": 0,
  "scenes": [
    {
      "name": "OSG_Scene",
      "nodes": [
        0
      ]
    }
  ],
  "textures": [
    {
      "sampler": 0,
      "source": 0
    },
    {
      "sampler": 0,
      "source": 1
    }
  ]
}

